<svg width="31" height="30" viewBox="0 0 31 30" fill="none" xmlns="http://www.w3.org/2000/svg">
<g clip-path="url(#clip0_1_571)">
<path d="M25.5352 6.9V1.875H25.3102C21.1102 2.0625 17.6227 4.7625 15.5227 6.9L15.4102 7.0125L15.2977 6.9C13.1602 4.7625 9.71016 2.0625 5.51016 1.875H5.28516V6.9H0.410156V15.5625C0.410156 17.6625 0.485156 19.7625 0.635156 21.4875C0.772523 23.1514 1.50322 24.7106 2.69407 25.8807C3.88491 27.0509 5.4566 27.7543 7.12266 27.8625C9.78516 28.0125 12.5977 28.125 15.4102 28.125C18.2227 28.125 21.0352 28.0125 23.6977 27.825C25.3637 27.7168 26.9354 27.0134 28.1262 25.8432C29.3171 24.6731 30.0478 23.1139 30.1852 21.45C30.3352 19.725 30.4102 17.625 30.4102 15.525V6.9H25.5352ZM25.5352 15.5625C25.5352 17.55 25.4602 19.5 25.3102 21.075C25.1977 22.0875 24.3727 22.9125 23.3602 22.95C18.0668 23.325 12.7535 23.325 7.46016 22.95C6.44766 22.9125 5.58516 22.0875 5.51016 21.075C5.36016 19.5 5.28516 17.5125 5.28516 15.5625V6.9C8.81016 7.05 12.3352 10.8375 13.3852 12.3L15.4102 15.1125L17.4352 12.3C18.4852 10.8 22.0102 7.05 25.5352 6.9V15.5625Z" fill="#D4D4D4"/>
</g>
<defs>
<clipPath id="clip0_1_571">
<rect width="30" height="30" fill="white" transform="translate(0.410156)"/>
</clipPath>
</defs>
</svg>
