<svg width="31" height="30" viewBox="0 0 31 30" fill="none" xmlns="http://www.w3.org/2000/svg">
<g id="SVG" clip-path="url(#clip0_1_508)">
<path id="Vector" d="M18.0923 17.1375L19.8423 14.1125C19.9548 13.925 19.9048 13.6875 19.7423 13.55L17.8923 12.1C17.9298 11.825 17.9548 11.5375 17.9548 11.25C17.9548 10.9625 17.9298 10.675 17.8923 10.3875L19.7423 8.9375C19.9048 8.8 19.9548 8.5625 19.8423 8.375L18.0923 5.35C17.9798 5.1625 17.7548 5.0875 17.5548 5.1625L15.3798 6.0375C14.9298 5.6875 14.4423 5.4 13.9048 5.175L13.5798 2.8625C13.5588 2.7614 13.5041 2.67044 13.4246 2.60457C13.345 2.53869 13.2455 2.50182 13.1423 2.5H9.64226C9.42976 2.5 9.24226 2.6625 9.20476 2.875L8.87977 5.1875C8.35476 5.4125 7.85476 5.7 7.40476 6.05L5.22976 5.175C5.02977 5.1 4.80476 5.175 4.69227 5.3625L2.94226 8.3875C2.82976 8.575 2.87977 8.8125 3.04227 8.95L4.89226 10.4C4.85476 10.675 4.82976 10.9625 4.82976 11.25C4.82976 11.5375 4.85476 11.825 4.89226 12.1125L3.04227 13.5625C2.87977 13.7 2.82976 13.9375 2.94226 14.125L4.69227 17.15C4.80476 17.3375 5.02977 17.4125 5.22976 17.3375L7.40476 16.4625C7.85476 16.8125 8.34227 17.1 8.87977 17.325L9.20476 19.6375C9.24226 19.8375 9.42976 20 9.64226 20H13.1423C13.3548 20 13.5423 19.8375 13.5798 19.625L13.9048 17.3125C14.4298 17.0875 14.9298 16.8 15.3798 16.45L17.5548 17.325C17.7548 17.4 17.9798 17.325 18.0923 17.1375ZM11.3923 13.75C10.0173 13.75 8.89226 12.625 8.89226 11.25C8.89226 9.875 10.0173 8.75 11.3923 8.75C12.7673 8.75 13.8923 9.875 13.8923 11.25C13.8923 12.625 12.7673 13.75 11.3923 13.75ZM27.7798 23.3375L26.5798 22.4125C26.6048 22.2375 26.6298 22.05 26.6298 21.8625C26.6298 21.675 26.6173 21.4875 26.5798 21.3125L27.7673 20.3875C27.8673 20.3 27.9048 20.15 27.8298 20.025L26.7048 18.0875C26.6423 17.9625 26.4923 17.925 26.3548 17.9625L24.9673 18.525C24.6798 18.3 24.3673 18.1125 24.0173 17.975L23.8048 16.5C23.7998 16.4332 23.7702 16.3706 23.7217 16.3244C23.6732 16.2782 23.6092 16.2517 23.5423 16.25H21.3048C21.1673 16.25 21.0423 16.35 21.0298 16.4875L20.8173 17.9625C20.4798 18.1125 20.1548 18.2875 19.8673 18.5125L18.4798 17.95C18.4161 17.926 18.3459 17.9255 18.2819 17.9483C18.2178 17.9712 18.1639 18.0161 18.1298 18.075L17.0048 20.0125C16.9423 20.1375 16.9548 20.2875 17.0673 20.375L18.2548 21.3C18.2032 21.6649 18.2032 22.0351 18.2548 22.4L17.0673 23.325C16.9673 23.4125 16.9298 23.5625 17.0048 23.6875L18.1298 25.625C18.1923 25.75 18.3423 25.7875 18.4798 25.75L19.8673 25.1875C20.1548 25.4125 20.4673 25.6 20.8173 25.7375L21.0298 27.2125C21.0548 27.35 21.1673 27.45 21.3048 27.45H23.5423C23.6798 27.45 23.8048 27.35 23.8173 27.2125L24.0298 25.7375C24.3673 25.5875 24.6923 25.4125 24.9673 25.1875L26.3673 25.75C26.4923 25.8 26.6423 25.75 26.7173 25.625L27.8423 23.6875C27.9173 23.575 27.8798 23.425 27.7798 23.3375ZM22.4173 23.5375C21.9695 23.5373 21.5402 23.3593 21.2238 23.0426C20.9073 22.7259 20.7296 22.2965 20.7298 21.8488C20.7299 21.401 20.9079 20.9717 21.2246 20.6552C21.5413 20.3388 21.9708 20.1611 22.4185 20.1612C22.8662 20.1614 23.2956 20.3394 23.612 20.6561C23.9285 20.9728 24.1062 21.4023 24.106 21.85C24.1059 22.2977 23.9278 22.727 23.6111 23.0435C23.2944 23.36 22.865 23.5377 22.4173 23.5375Z" fill="#D4D4D4"/>
</g>
<defs>
<clipPath id="clip0_1_508">
<rect width="30" height="30" fill="white" transform="translate(0.379883)"/>
</clipPath>
</defs>
</svg>
