<svg width="31" height="30" viewBox="0 0 31 30" fill="none" xmlns="http://www.w3.org/2000/svg">
<g id="SVG" clip-path="url(#clip0_1_543)">
<path id="Vector" d="M30.0344 16.2917C28.5448 9.19279 22.8261 4.92716 16.7167 4.26571V3.33341C16.7167 2.41154 15.9719 1.66675 15.05 1.66675C14.1282 1.66675 13.3834 2.41154 13.3834 3.33341V4.26571C7.25316 4.92716 1.58649 9.19279 0.0656574 16.2917C-0.0489259 16.8178 0.508366 17.4011 1.03962 16.8855C3.74795 14.0209 6.64899 14.1563 9.30003 18.8126C9.57607 19.3074 10.0761 19.2605 10.3261 18.8126C11.3782 16.9688 12.6646 15.0001 15.05 15.0001C18.0969 15.0001 19.6438 18.5834 19.774 18.8126C20.024 19.2605 20.524 19.3074 20.8 18.8126C23.4563 14.1511 26.3782 14.0522 29.0604 16.8855C29.5969 17.4063 30.149 16.8178 30.0344 16.2917ZM13.3834 17.3803V24.1667C13.3834 24.6251 13.0084 25.0001 12.55 25.0001C12.1438 25.0001 11.8625 24.724 11.7636 24.4428C11.4563 23.573 10.5084 23.1199 9.63857 23.4272C8.76878 23.7345 8.31566 24.6876 8.62295 25.5522C9.20628 27.2136 10.7896 28.3282 12.55 28.3282C14.8469 28.3282 16.7167 26.4584 16.7167 24.1615V17.3751C16.2427 16.9636 15.6854 16.6667 15.05 16.6667C14.4094 16.672 13.8834 16.9167 13.3834 17.3803Z" fill="#D4D4D4"/>
</g>
<defs>
<clipPath id="clip0_1_543">
<rect width="30" height="30" fill="white" transform="translate(0.0500488)"/>
</clipPath>
</defs>
</svg>
